inDegrees=no
num_controls=7
num_derivatives=13
num_iterations=146
num_multipliers=7
num_parameters=0
num_slacks=7
num_states=26
objective=6.339448
objective_accelerations=0.709687
objective_balance=0.072322
objective_effort=0.550140
objective_height=4.891425
objective_ligament=0.115873
solver_duration=1518.332722
status=Solve_Succeeded
success=true
DataType=double
version=3
OpenSimVersion=4.4-2022-07-23-0e9fedc
endheader
time	/jointset/ground_pelvis/pelvis_tilt/value	/jointset/ground_pelvis/pelvis_tx/value	/jointset/ground_pelvis/pelvis_ty/value	/jointset/hip_l/hip_flexion_l/value	/jointset/hip_l/hip_adduction_l/value	/jointset/hip_l/hip_rotation_l/value	/jointset/back/lumbar_extension/value	/jointset/patellofemoral_l/patellar_flexion_l/value	/jointset/knee_l/knee_flexion_l/value	/jointset/knee_l/knee_adduction_l/value	/jointset/knee_l/knee_rotation_l/value	/jointset/ankle_l/ankle_angle_l/value	/jointset/subtalar_l/subtalar_angle_l/value	/jointset/ground_pelvis/pelvis_tilt/speed	/jointset/ground_pelvis/pelvis_tx/speed	/jointset/ground_pelvis/pelvis_ty/speed	/jointset/hip_l/hip_flexion_l/speed	/jointset/hip_l/hip_adduction_l/speed	/jointset/hip_l/hip_rotation_l/speed	/jointset/back/lumbar_extension/speed	/jointset/patellofemoral_l/patellar_flexion_l/speed	/jointset/knee_l/knee_flexion_l/speed	/jointset/knee_l/knee_adduction_l/speed	/jointset/knee_l/knee_rotation_l/speed	/jointset/ankle_l/ankle_angle_l/speed	/jointset/subtalar_l/subtalar_angle_l/speed	/forceset/tau_hip_flexion_l	/forceset/tau_hip_adduction_l	/forceset/tau_hip_rotation_l	/forceset/tau_knee_flexion_l	/forceset/tau_ankle_angle_l	/forceset/tau_subtalar_angle_l	/forceset/tau_lumbar_extension	lambda_cid13_p0	lambda_cid13_p1	lambda_cid13_p2	lambda_cid13_p3	lambda_cid13_p4	lambda_cid13_p5	lambda_cid14_p0	/jointset/ground_pelvis/pelvis_tilt/accel	/jointset/ground_pelvis/pelvis_tx/accel	/jointset/ground_pelvis/pelvis_ty/accel	/jointset/hip_l/hip_flexion_l/accel	/jointset/hip_l/hip_adduction_l/accel	/jointset/hip_l/hip_rotation_l/accel	/jointset/back/lumbar_extension/accel	/jointset/patellofemoral_l/patellar_flexion_l/accel	/jointset/knee_l/knee_flexion_l/accel	/jointset/knee_l/knee_adduction_l/accel	/jointset/knee_l/knee_rotation_l/accel	/jointset/ankle_l/ankle_angle_l/accel	/jointset/subtalar_l/subtalar_angle_l/accel	gamma_cid13_p0	gamma_cid13_p1	gamma_cid13_p2	gamma_cid13_p3	gamma_cid13_p4	gamma_cid13_p5	gamma_cid14_p0
0	-0.03682257877986291	0.05667752257421897	0.9203415944592007	0.3085811930696054	-0.2956404156751141	-0.3016064416131939	-0.3879500408040475	0.2499276582270841	0.249927658227084	-0.174532884135175	-0.1745321425607061	-0.0008036543073733089	0.000437655672032303	0	0	0	0	0	0	0	0	0	0	0	0	0	0.09577396183456643	-0.06119503830323999	-0.02400406056199424	-0.2760172040733799	0.2350048058818695	-0.02213615044618226	-0.01582660612464156	32.22987730629468	1.741118777271076	1.814614073588934	0.1859536858770512	-614.7586064522388	-73.49564729463235	-23.19693590628312	-1.365902580647458	-2.07467764584232	-1.038728381808576	10.60714622981428	-0.8137367740869446	3.758820100062991	-7.63775778074703	10.77985555631358	10.77985555631358	1.78009264223016	-0.06485698783885412	2.240861320675328	-0.1146685189864678	1.666205953030594e-08	2.818160005996514e-07	3.077997591580843e-08	-1.232990731198484e-08	1.885392729216026e-07	4.410090994493374e-08	2.281907700914187e-08
0.01	-0.03688660874352845	0.05657609326497825	0.920290871493237	0.3090973462283466	-0.2956815033732218	-0.301417339445396	-0.3883299024764253	0.2504558230472345	0.2504558230472344	-0.1744486091008642	-0.1745310990708746	-0.0006932521359981476	0.0004309251329959477	-0.01274808261127247	-0.02007413790032903	-0.01009849472905044	0.1025818022579788	-0.008197903155614025	0.03761560780106794	-0.07536914134521804	0.1051159340904639	0.1051159340904639	0.01671130502789561	0.0001894920201631432	0.02210963796053693	-0.001313730719618585	0.0912675749852853	-0.07340266690090737	-0.02367311759888192	-0.2753035866327147	0.2330406909033007	-0.008846592119851586	-0.01061674966772507	31.98104835008918	-3.854641728560054	2.555582325347999	-2.244305188264775	-618.1446088747352	-84.8896649831949	-23.20291177112394	-1.220585491449472	-1.942025735945702	-0.9884575410410281	9.986365314610488	-0.819924074627492	3.732217320813565	-7.396013341853352	10.29990328065902	10.29990328065902	1.59514644031243	0.05796673997230231	2.200403472814179	-0.1349172791582351	-3.353253562671147e-08	2.268398634744464e-07	1.730319688777306e-07	2.777651651119316e-08	5.865342903839453e-10	-6.74327299346592e-08	1.768630497250376e-09
0.02	-0.03707638441132333	0.05628027380197072	0.920140554075465	0.3106198510278316	-0.2958039915005514	-0.3008582239594503	-0.3894453597683441	0.2520196353973387	0.2520196353973387	-0.1742015216148257	-0.1745287377722358	-0.0003608758972033598	0.0004120189006216696	-0.02514914082583758	-0.03887803075335985	-0.0199188903616112	0.2012703281487899	-0.01628008584438248	0.0740026636295307	-0.147119123908202	0.2071295059907766	0.2071295059907767	0.03256249034551793	0.0002635617614624292	0.044394813483926	-0.002435138667584431	0.08676118813600414	-0.08561029549857474	-0.02334217463576955	-0.2745899691920496	0.2310765759247318	0.004442966206479108	-0.005406893210808576	31.81614682520838	-9.463852416457621	3.297273548712496	-4.818725494810891	-620.2858105253734	-96.17735247705224	-23.22048290631153	-1.296497701305982	-1.820628636382682	-0.9831085625106398	9.828490956380733	-0.7905926807178308	3.513109705541957	-6.913926024300223	10.15938311828334	10.15938311828334	1.608068700175502	-0.08794144361162617	2.275968833245752	-0.07620396465592091	-8.372713078372887e-08	1.718637263492414e-07	3.152839618396527e-07	6.788294033437117e-08	-1.873662043408347e-07	-1.789663698142521e-07	-1.928181601464112e-08
0.03	-0.03738844497760072	0.05580171513774778	0.9198930389001421	0.3131119013610579	-0.2960059874868595	-0.2999420334512727	-0.391261061354785	0.254588923034845	0.254588923034845	-0.1737987821742984	-0.1745267180033676	0.0001942757824232275	0.0003832868050725429	-0.03718042298821412	-0.05672705284799388	-0.0295714495759236	0.2966689098956996	-0.02403216960508507	0.1090662813211108	-0.2155307549934687	0.3062778713404583	0.3062778713404581	0.04796173584548315	0.0001699544579947631	0.06656920697301014	-0.003243822876437786	0.07860162837179699	-0.07642612002596079	-0.0222022104804861	-0.26650988629449	0.2230852667251232	0.001349627055689568	0.001433783608709178	29.08709917883557	-7.76179870292412	3.162097005967674	-3.775813086114655	-621.6362432470012	-91.54917348017811	-23.24888772842428	-1.144068906900131	-1.751027870892193	-0.9544635644800163	9.324905036704063	-0.7545464700602915	3.47757441582194	-6.73121589265769	9.725044659223721	9.725044659223711	1.502365524931802	0.03441277242481607	2.178228273641797	-0.07314532795694444	-1.025619641641365e-07	1.854155483932029e-07	3.61936929208585e-07	9.271402664685612e-08	-2.845955351887514e-07	-2.079729564333992e-07	-2.096107697958511e-08
0.04	-0.03781834345214136	0.05514786847760079	0.9195493713399583	0.3165438101623246	-0.2962829103600375	-0.298680289443208	-0.3937461661004821	0.2581361906090307	0.2581361906090308	-0.1732427476687664	-0.1745247376783061	0.000969182130321062	0.0003484789316435011	-0.04871672247845569	-0.07393562993816649	-0.0391493673337753	0.3892420217569284	-0.03126546321834073	0.1431133636069269	-0.2809997557594443	0.402725493326666	0.4027254933266659	0.06322150334644008	0.0002556730000929556	0.08834574713817638	-0.003650294243567217	0.07044206860758989	-0.06724194455335016	-0.02106224632520264	-0.2584298033969303	0.2150939575255147	-0.001743712095099944	0.008274460428226953	26.43589173933343	-6.068866511744544	3.023226728082828	-2.876572110492948	-621.8472754809558	-86.8169844716749	-23.28703994744535	-1.197501166878983	-1.692539635490399	-0.9681802712184898	9.263396979244582	-0.6868346512284771	3.309802624389142	-6.32539996044202	9.619234445588566	9.619234445588591	1.580173100373935	-0.05207627449848011	2.196398168462174	0.004238603688863201	-1.207502045182222e-07	2.003803180488998e-07	4.06618782647765e-07	1.172301575467494e-07	-3.799542803091774e-07	-2.352779543255269e-07	-2.224093205696318e-08
0.05	-0.03836152230865254	0.05432541194441213	0.9191100563174074	0.3208872352619281	-0.2966299769715527	-0.2970841726596565	-0.3968709748928241	0.2626343622503525	0.2626343622503524	-0.1725359017587846	-0.1745220642125654	0.001959855920953377	0.0003111999957497104	-0.0598407049007567	-0.09042084206109918	-0.0487181680143642	0.4789052376487376	-0.03810495693281003	0.1758942203703896	-0.3434835983259628	0.4964169900163987	0.4964169900163987	0.07799606594823351	0.0002631530606068878	0.1097137380640185	-0.003786829654015819	0.06318976591362531	-0.0657099439513847	-0.02009219370248751	-0.2530905734733688	0.2086022134749221	0.001141760803158339	0.01455184511512138	24.49327235084859	-7.008201474959577	3.203037522201436	-2.837527745429981	-622.1684890857262	-87.75606194269248	-23.33356160637159	-1.058100197800897	-1.606263160790577	-0.9519863536010928	8.737105952037879	-0.6761574187507929	3.229808892899798	-6.138115747305461	9.170335001002783	9.170335001002773	1.403431628939478	0.02484382649788954	2.09570893370561	-0.0198782234897228	-1.420468088565729e-07	8.718766974608118e-08	4.759453663741429e-07	1.244564072479831e-07	-4.657589291609401e-07	-3.061305542957951e-07	-4.116895178174464e-08
